<svg width="24" height="25" viewBox="0 0 24 25" fill="none" xmlns="http://www.w3.org/2000/svg">
<g id="Frame" clip-path="url(#clip0_4_120)">
<path id="Vector" d="M12 0.5C5.37262 0.5 0 5.87262 0 12.5C0 19.1278 5.37262 24.5 12 24.5C18.6278 24.5 24 19.1278 24 12.5C24 5.87262 18.6278 0.5 12 0.5ZM12 23.0236C6.21037 23.0236 1.5 18.2896 1.5 12.5C1.5 6.71033 6.21037 1.99995 12 1.99995C17.7896 1.99995 22.5 6.71035 22.5 12.5C22.5 18.2896 17.7896 23.0236 12 23.0236ZM16.7891 8.10913L9.74848 15.194L6.57785 12.0234C6.28498 11.7305 5.81023 11.7305 5.51698 12.0234C5.2241 12.3162 5.2241 12.791 5.51698 13.0839L9.2291 16.7964C9.52198 17.0889 9.99673 17.0889 10.29 16.7964C10.3237 16.7626 10.3526 16.7259 10.3789 16.6876L17.8504 9.16998C18.1429 8.8771 18.1429 8.40235 17.8504 8.10913C17.5571 7.81625 17.0824 7.81625 16.7891 8.10913Z" fill="black"/>
</g>
<defs>
<clipPath id="clip0_4_120">
<rect width="24" height="24" fill="white" transform="translate(0 0.5)"/>
</clipPath>
</defs>
</svg>
